# xmcd CD database file
#
# Track frame offsets:
#	187
#	17262
#	32727
#	45700
#	60275
#	74525
#	90457
#	104122
#	119770
#	135377
#
# Disc length: 1970 seconds
#
# Revision: 0
# Processed by: cddbd v1.5.1PL2 Copyright (c) Steve Scherf et al.
# Submitted via: CDex 1.51
#
DISCID=8307b00a
DTITLE=小泉今日子 - 小泉今日子 VOL.1
DYEAR=1987
DGENRE=JPop
TTITLE0=私の16才
TTITLE1=三色れもん
TTITLE2=素敵なラブリーボーイ
TTITLE3=恋のヒットチャート No.1
TTITLE4=ひとり街角
TTITLE5=Teenage ドリーム
TTITLE6=春風の誘惑
TTITLE7=真夜中のレッスン
TTITLE8=まっ赤な女の子
TTITLE9=午後のヒルサイドテラス
EXTD=YEAR: 1987
EXTT0=
EXTT1=
EXTT2=
EXTT3=
EXTT4=
EXTT5=
EXTT6=
EXTT7=
EXTT8=
EXTT9=
PLAYORDER=
